HIERARCHY
ROOT PELVIS
{
    OFFSET 0 0 0
    CHANNELS 6 Xposition Yposition Zposition Xrotation Yrotation Zrotation
    JOINT SPINE_NAVAL
    {
        OFFSET -2.0534851999999972 -15.5394837 -4.181665000000021
        CHANNELS 3 Xrotation Yrotation Zrotation
        JOINT SPINE_CHEST
        {
            OFFSET -0.1256637000000012 -12.880011000000001 -1.5139648999999735
            CHANNELS 3 Xrotation Yrotation Zrotation
            JOINT NECK
            {
                OFFSET 0.6955734000000007 -19.713171299999992 -0.8032470999999987
                CHANNELS 3 Xrotation Yrotation Zrotation
                JOINT HEAD
                {
                    OFFSET -1.3472442999999998 -6.821453900000006 -2.612817300000006
                    CHANNELS 3 Xrotation Yrotation Zrotation
                }
            }
            JOINT CLAVICLE_LEFT
            {
                OFFSET 2.8376296999999995 -16.523620599999997 -0.8934326000000056
                CHANNELS 3 Xrotation Yrotation Zrotation
                JOINT SHOULDER_LEFT
                {
                    OFFSET 10.252911399999999 3.060675100000003 -7.381201199999987
                    CHANNELS 3 Xrotation Yrotation Zrotation
                    JOINT ELBOW_LEFT
                    {
                        OFFSET 3.705188000000004 24.848709099999997 -0.4947998000000098
                        CHANNELS 3 Xrotation Yrotation Zrotation
                        JOINT WRIST_LEFT
                        {
                            OFFSET -1.6777131000000054 20.755538899999998 -3.3462890000000245
                            CHANNELS 3 Xrotation Yrotation Zrotation
                            JOINT HAND_LEFT
                            {
                                OFFSET 2.300473100000005 8.163669200000001 2.175024400000029
                                CHANNELS 3 Xrotation Yrotation Zrotation
                                JOINT HANDTIP_LEFT
                                {
                                    OFFSET -0.051223800000002484 7.1441635 6.745263599999999
                                    CHANNELS 3 Xrotation Yrotation Zrotation
                                }
                            }
                            JOINT THUMB_LEFT
                            {
                                OFFSET -2.834121699999997 11.9597349 4.810522400000036
                                CHANNELS 3 Xrotation Yrotation Zrotation
                            }
                        }
                    }
                }
            }
            JOINT CLAVICLE_RIGHT
            {
                OFFSET -1.0794707999999986 -16.622052000000004 1.603588899999977
                CHANNELS 3 Xrotation Yrotation Zrotation
                JOINT SHOULDER_RIGHT
                {
                    OFFSET -10.558650200000002 3.7694825000000036 4.160668900000019
                    CHANNELS 3 Xrotation Yrotation Zrotation
                    JOINT ELBOW_RIGHT
                    {
                        OFFSET -3.171775099999999 24.1309143 7.949121100000002
                        CHANNELS 3 Xrotation Yrotation Zrotation
                        JOINT WRIST_RIGHT
                        {
                            OFFSET -3.3093597000000003 20.921231799999997 -2.7364501999999904
                            CHANNELS 3 Xrotation Yrotation Zrotation
                            JOINT HAND_RIGHT
                            {
                                OFFSET -0.3383876999999991 8.972045099999999 2.876147499999979
                                CHANNELS 3 Xrotation Yrotation Zrotation
                                JOINT HANDTIP_RIGHT
                                {
                                    OFFSET 7.4710163 5.7339547 -2.140478499999972
                                    CHANNELS 3 Xrotation Yrotation Zrotation
                                }
                            }
                            JOINT THUMB_RIGHT
                            {
                                OFFSET 3.8033332 12.8209585 -1.3018309999999929
                                CHANNELS 3 Xrotation Yrotation Zrotation
                            }
                        }
                    }
                }
            }
        }
    }
    JOINT HIP_LEFT
    {
        OFFSET 7.179837000000004 0.16621849999999938 -4.143481400000018
        CHANNELS 3 Xrotation Yrotation Zrotation
        JOINT KNEE_LEFT
        {
            OFFSET 1.8186462000000005 36.3250458 1.54128410000003
            CHANNELS 3 Xrotation Yrotation Zrotation
            JOINT ANKLE_LEFT
            {
                OFFSET 5.139150999999998 31.740254200000003 13.285449299999982
                CHANNELS 3 Xrotation Yrotation Zrotation
                JOINT FOOT_LEFT
                {
                    OFFSET -1.627920499999999 12.280194099999994 -11.693652399999973
                    CHANNELS 3 Xrotation Yrotation Zrotation
                }
            }
        }
    }
    JOINT HIP_RIGHT
    {
        OFFSET -6.474380499999998 -0.14957740000000114 3.736352500000021
        CHANNELS 3 Xrotation Yrotation Zrotation
        JOINT KNEE_RIGHT
        {
            OFFSET 2.1862212999999997 35.5006073 7.567529299999978
            CHANNELS 3 Xrotation Yrotation Zrotation
            JOINT ANKLE_RIGHT
            {
                OFFSET 6.129772899999997 33.16903229999999 9.909472700000014
                CHANNELS 3 Xrotation Yrotation Zrotation
                JOINT FOOT_RIGHT
                {
                    OFFSET -9.378500299999999 10.563830600000006 -6.789648400000033
                    CHANNELS 3 Xrotation Yrotation Zrotation
                }
            }
        }
    }
}
MOTION
Frames: 10
Frame Time: 0.01
0 0 0 0.0 0.0 0.0 0.0 0.0 0.0 0.0 0.0 0.0 0.0 0.0 0.0 0.0 0.0 0.0 0.0 0.0 0.0 0.0 0.0 0.0 0.0 0.0 0.0 0.0 0.0 0.0 0 0 0 0 0 0 0.0 0.0 0.0 0.0 0.0 0.0 0.0 0.0 0.0 0.0 0.0 0.0 0.0 0.0 0.0 0 0 0 0 0 0 0.0 0.0 0.0 0.0 0.0 0.0 0.0 0.0 0.0 0 0 0 0.0 0.0 0.0 0.0 0.0 0.0 0.0 0.0 0.0 0 0 0 0 0 0 
0 0 0 0.0 0.0 0.0 0.0 0.0 0.0 0.0 0.0 0.0 0.0 0.0 0.0 0.0 0.0 0.0 0.0 0.0 0.0 0.0 0.0 0.0 0.0 0.0 0.0 0.0 0.0 0.0 0 0 0 0 0 0 0.0 0.0 0.0 0.0 0.0 0.0 0.0 0.0 0.0 0.0 0.0 0.0 0.0 0.0 0.0 0 0 0 0 0 0 0.0 0.0 0.0 0.0 0.0 0.0 0.0 0.0 0.0 0 0 0 0.0 0.0 0.0 0.0 0.0 0.0 0.0 0.0 0.0 0 0 0 0 0 0 
0 0 0 0.0 0.0 0.0 0.0 0.0 0.0 0.0 0.0 0.0 0.0 0.0 0.0 0.0 0.0 0.0 0.0 0.0 0.0 0.0 0.0 0.0 0.0 0.0 0.0 0.0 0.0 0.0 0 0 0 0 0 0 0.0 0.0 0.0 0.0 0.0 0.0 0.0 0.0 0.0 0.0 0.0 0.0 0.0 0.0 0.0 0 0 0 0 0 0 0.0 0.0 0.0 0.0 0.0 0.0 0.0 0.0 0.0 0 0 0 0.0 0.0 0.0 0.0 0.0 0.0 0.0 0.0 0.0 0 0 0 0 0 0 
0 0 0 0.0 0.0 0.0 0.0 0.0 0.0 0.0 0.0 0.0 0.0 0.0 0.0 0.0 0.0 0.0 0.0 0.0 0.0 0.0 0.0 0.0 0.0 0.0 0.0 0.0 0.0 0.0 0 0 0 0 0 0 0.0 0.0 0.0 0.0 0.0 0.0 0.0 0.0 0.0 0.0 0.0 0.0 0.0 0.0 0.0 0 0 0 0 0 0 0.0 0.0 0.0 0.0 0.0 0.0 0.0 0.0 0.0 0 0 0 0.0 0.0 0.0 0.0 0.0 0.0 0.0 0.0 0.0 0 0 0 0 0 0 
0 0 0 0.0 0.0 0.0 0.0 0.0 0.0 0.0 0.0 0.0 0.0 0.0 0.0 0.0 0.0 0.0 0.0 0.0 0.0 0.0 0.0 0.0 0.0 0.0 0.0 0.0 0.0 0.0 0 0 0 0 0 0 0.0 0.0 0.0 0.0 0.0 0.0 0.0 0.0 0.0 0.0 0.0 0.0 0.0 0.0 0.0 0 0 0 0 0 0 0.0 0.0 0.0 0.0 0.0 0.0 0.0 0.0 0.0 0 0 0 0.0 0.0 0.0 0.0 0.0 0.0 0.0 0.0 0.0 0 0 0 0 0 0 
0 0 0 0.0 0.0 0.0 0.0 0.0 0.0 0.0 0.0 0.0 0.0 0.0 0.0 0.0 0.0 0.0 0.0 0.0 0.0 0.0 0.0 0.0 0.0 0.0 0.0 0.0 0.0 0.0 0 0 0 0 0 0 0.0 0.0 0.0 0.0 0.0 0.0 0.0 0.0 0.0 0.0 0.0 0.0 0.0 0.0 0.0 0 0 0 0 0 0 0.0 0.0 0.0 0.0 0.0 0.0 0.0 0.0 0.0 0 0 0 0.0 0.0 0.0 0.0 0.0 0.0 0.0 0.0 0.0 0 0 0 0 0 0 
0 0 0 0.0 0.0 0.0 0.0 0.0 0.0 0.0 0.0 0.0 0.0 0.0 0.0 0.0 0.0 0.0 0.0 0.0 0.0 0.0 0.0 0.0 0.0 0.0 0.0 0.0 0.0 0.0 0 0 0 0 0 0 0.0 0.0 0.0 0.0 0.0 0.0 0.0 0.0 0.0 0.0 0.0 0.0 0.0 0.0 0.0 0 0 0 0 0 0 0.0 0.0 0.0 0.0 0.0 0.0 0.0 0.0 0.0 0 0 0 0.0 0.0 0.0 0.0 0.0 0.0 0.0 0.0 0.0 0 0 0 0 0 0 
0 0 0 0.0 0.0 0.0 0.0 0.0 0.0 0.0 0.0 0.0 0.0 0.0 0.0 0.0 0.0 0.0 0.0 0.0 0.0 0.0 0.0 0.0 0.0 0.0 0.0 0.0 0.0 0.0 0 0 0 0 0 0 0.0 0.0 0.0 0.0 0.0 0.0 0.0 0.0 0.0 0.0 0.0 0.0 0.0 0.0 0.0 0 0 0 0 0 0 0.0 0.0 0.0 0.0 0.0 0.0 0.0 0.0 0.0 0 0 0 0.0 0.0 0.0 0.0 0.0 0.0 0.0 0.0 0.0 0 0 0 0 0 0 
0 0 0 0.0 0.0 0.0 0.0 0.0 0.0 0.0 0.0 0.0 0.0 0.0 0.0 0.0 0.0 0.0 0.0 0.0 0.0 0.0 0.0 0.0 0.0 0.0 0.0 -0.07610291930094625 -0.17911085345825625 0.18937953372853722 0 0 0 0 0 0 0.0 0.0 0.0 0.0 0.0 0.0 0.0 0.0 0.0 0.15097158167675503 -0.15541593610985127 0.5003927246634537 -0.48815048714382336 0.23152981732971947 -1.064542246496409 0 0 0 0 0 0 0.0 0.0 0.0 0.0 0.0 0.0 0.0 0.0 0.0 0 0 0 0.0 0.0 0.0 0.0 0.0 0.0 0.0 0.0 0.0 0 0 0 0 0 0 
0 0 0 0.0 0.0 0.0 0.0 0.0 0.0 0.0 0.0 0.0 0.0 0.0 0.0 0.025007560347669662 0.2570530365255894 0.1409558150171557 0.021858675729498123 -0.009842928816249385 -0.3331260273224867 0.0 0.0 0.0 0.2962808015574574 -0.1718563941720321 0.3223398581340086 -0.48893239365435837 -0.3309576868835914 0.3450959476702561 0 0 0 0 0 0 0.0 0.0 0.0 0.0 0.0 0.0 0.0 0.0 0.0 0.2801886139322279 -0.3047428324159585 0.9756966799464396 -0.9679254624365891 0.44935534903313357 -2.099217008302805 0 0 0 0 0 0 0.3713759589720444 -0.014284592949732932 -0.0943727580553347 -0.6048323703765465 0.03134000129760675 0.16090554543105615 0.0 0.0 0.0 0 0 0 0.0 0.0 0.0 0.0 0.0 0.0 0.0 0.0 0.0 0 0 0 0 0 0 
